<?xml version="1.0" encoding="UTF-8" standalone="no"?>
<svg
   height="200"
   viewBox="0 0 200 200"
   width="200"
   fill="#000000"
   version="1.1"
   id="svg6"
   sodipodi:docname="CarBigLogo.svg"
   inkscape:version="1.1.1 (3bf5ae0d25, 2021-09-20)"
   xmlns:inkscape="http://www.inkscape.org/namespaces/inkscape"
   xmlns:sodipodi="http://sodipodi.sourceforge.net/DTD/sodipodi-0.dtd"
   xmlns="http://www.w3.org/2000/svg"
   xmlns:svg="http://www.w3.org/2000/svg">
  <defs
     id="defs10" />
  <sodipodi:namedview
     id="namedview8"
     pagecolor="#ffffff"
     bordercolor="#666666"
     borderopacity="1.0"
     inkscape:pageshadow="2"
     inkscape:pageopacity="0.0"
     inkscape:pagecheckerboard="0"
     showgrid="false"
     units="px"
     inkscape:zoom="2"
     inkscape:cx="-2"
     inkscape:cy="112"
     inkscape:window-width="1920"
     inkscape:window-height="1080"
     inkscape:window-x="0"
     inkscape:window-y="0"
     inkscape:window-maximized="1"
     inkscape:current-layer="svg6" />
  <path
     d="M 0,0 H 24 V 24 H 0 Z"
     fill="none"
     id="path2" />
  <path
     d="M 175.77141,12.847337 C 173.56599,5.5422445 167.39082,0.34200883 160.11294,0.34200883 H 38.814896 c -7.277881,0 -13.342782,5.20023567 -15.658472,12.50532817 L 0.22006543,87.012601 V 186.0647 c 0,6.80984 4.96219277,12.38151 11.02709457,12.38151 h 11.027094 c 6.064903,0 11.027095,-5.57167 11.027095,-12.38151 V 173.68319 H 165.62647 v 12.38151 c 0,6.80984 4.9622,12.38151 11.02712,12.38151 h 11.02706 c 6.06494,0 11.02711,-5.57167 11.02711,-12.38151 V 87.012601 Z M 38.814896,136.53866 c -9.152488,0 -16.540642,-8.29562 -16.540642,-18.57227 0,-10.27666 7.388154,-18.572279 16.540642,-18.572279 9.152487,0 16.540645,8.295619 16.540645,18.572279 0,10.27665 -7.388158,18.57227 -16.540645,18.57227 z m 121.298044,0 c -9.15248,0 -16.54065,-8.29562 -16.54065,-18.57227 0,-10.27666 7.38817,-18.572279 16.54065,-18.572279 9.15249,0 16.54065,8.295619 16.54065,18.572279 0,10.27665 -7.38816,18.57227 -16.54065,18.57227 z M 22.274254,74.631092 38.814896,18.914278 H 160.11294 l 16.54065,55.716814 z"
     id="path4"
     style="stroke-width:11.6847" />
</svg>
