<?xml version="1.0" encoding="UTF-8" standalone="no"?>
<svg
   version="1.1"
   id="svg2985"
   x="0px"
   y="0px"
   viewBox="-46.166 84.6162 24 24"
   enable-background="new -46.166 84.6162 1446.968 725.2566"
   xml:space="preserve"
   sodipodi:docname="CarClassic24.svg"
   inkscape:version="1.1.1 (3bf5ae0d25, 2021-09-20, custom)"
   width="24"
   height="24"
   xmlns:inkscape="http://www.inkscape.org/namespaces/inkscape"
   xmlns:sodipodi="http://sodipodi.sourceforge.net/DTD/sodipodi-0.dtd"
   xmlns="http://www.w3.org/2000/svg"
   xmlns:svg="http://www.w3.org/2000/svg"><defs
   id="defs6" /><sodipodi:namedview
   id="namedview4"
   pagecolor="#ffffff"
   bordercolor="#666666"
   borderopacity="1.0"
   inkscape:pageshadow="2"
   inkscape:pageopacity="0.0"
   inkscape:pagecheckerboard="false"
   showgrid="false"
   showguides="true"
   inkscape:guide-bbox="true"
   inkscape:zoom="19.468294"
   inkscape:cx="13.714607"
   inkscape:cy="15.692182"
   inkscape:window-width="1916"
   inkscape:window-height="1032"
   inkscape:window-x="0"
   inkscape:window-y="22"
   inkscape:window-maximized="1"
   inkscape:current-layer="svg2985"><sodipodi:guide
     position="664.81853,395.17187"
     orientation="1,0"
     id="guide8" /></sodipodi:namedview>
<path
   id="path2995"
   d="m -34.202268,104.2186 c -0.01507,-0.005 -0.113764,-0.0218 -0.219298,-0.0362 -0.228676,-0.0312 -0.422918,-0.13165 -0.51073,-0.26387 -0.0838,-0.12621 -0.183715,-0.32609 -0.183715,-0.36752 0,-0.0193 -0.01247,-0.0733 -0.02769,-0.12005 -0.103783,-0.31865 -0.161671,-0.74238 -0.188412,-1.37912 l -0.01234,-0.2939 -0.05483,-0.01 c -0.185344,0.0402 -0.314053,0.0512 -0.470672,0.01 -0.04266,-0.0102 -0.196817,-0.0615 -0.342559,-0.11373 -0.51228,-0.18414 -1.070631,-0.29326 -1.58991,-0.19493 l -0.100508,0.0198 -0.127925,-0.19273 c -0.07036,-0.10599 -0.197823,-0.28989 -0.28326,-0.40869 l -0.155336,-0.21595 0.447735,0.0211 c 0.804531,0.038 2.039287,0.0221 2.349962,-0.0302 0.310467,-0.0524 0.510414,-0.12224 0.640786,-0.22386 0.105623,-0.0823 0.156953,-0.16178 0.201957,-0.31249 0.0184,-0.0616 0.04732,-0.143547 0.0643,-0.182157 0.01697,-0.0386 0.08103,-0.25902 0.14234,-0.48984 0.06131,-0.23081 0.176676,-0.62291 0.25636,-0.8713 0.137349,-0.428156 0.147998,-0.452473 0.204572,-0.467372 0.370703,-0.09755 0.767451,-0.09341 0.961034,0.01006 0.313105,0.167332 0.574819,0.594332 0.733735,1.197152 0.07915,0.30018 0.216703,0.985447 0.231544,1.153367 0.0224,0.25341 0.02692,0.89891 0.0084,1.18962 -0.04135,0.64713 -0.166476,1.35793 -0.307655,1.74772 -0.127657,0.35242 -0.366393,0.66729 -0.562188,0.74149 -0.191904,0.0726 -0.973298,0.13171 -1.105629,0.0835 z m 1.111163,-0.75577 c 0.236257,-0.1803 0.451826,-0.76123 0.552266,-1.48819 0.04861,-0.35187 0.06763,-1.07172 0.03753,-1.42037 -0.06552,-0.758727 -0.247971,-1.318237 -0.484997,-1.487277 -0.174528,-0.12448 -0.322202,-0.0646 -0.495466,0.20073 -0.274543,0.42051 -0.446493,1.273417 -0.44631,2.213867 8.6e-5,0.45577 0.03474,0.82016 0.111386,1.17125 0.06595,0.30214 0.122638,0.45715 0.234481,0.64124 0.150729,0.24811 0.313745,0.30414 0.491101,0.16876 z m -9.532703,-0.12554 c -0.180988,-0.036 -0.390242,-0.12544 -0.510089,-0.21811 -0.139758,-0.10806 -0.297165,-0.3692 -0.353616,-0.58668 -0.195193,-0.53886 -0.226025,-1.00192 -0.261203,-1.58223 0.01362,-0.22368 -0.0691,-1.333377 0.09157,-1.333677 0.06405,0 0.08365,0.0135 0.1142,0.0793 0.05623,0.12095 0.236459,0.25207 0.471452,0.342957 0.443075,0.17139 1.224469,0.30322 2.767177,0.46686 l 0.193732,0.0206 0.192872,0.3219 c 0.108766,0.20783 0.164603,0.20821 0.151499,0.39396 0.0064,0.0158 -0.03953,0.0264 -0.113833,0.026 -0.158519,0.0135 -0.599161,-0.0597 -0.659979,0.0909 -0.195358,0.23621 -0.134767,-0.003 -0.231394,0.26752 -0.130952,0.44876 -0.204115,0.93435 -0.439458,1.26128 -0.10172,0.1368 -0.453854,0.38609 -0.615879,0.43604 -0.152571,0.047 -0.590752,0.0544 -0.797076,0.0134 z m 16.143444,-1.10844 c -0.141297,-0.0278 -0.309996,-0.10028 -0.371181,-0.15957 -0.141601,-0.13717 -0.255079,-0.34714 -0.279715,-0.51754 -0.0081,-0.0558 -0.03477,-0.19594 -0.05935,-0.31141 -0.09206,-0.43245 -0.135107,-0.84879 -0.10708,-1.03567 0.01396,-0.093 0.02209,-0.10164 0.160164,-0.17034 0.262536,-0.130637 0.33966,-0.211527 0.463195,-0.485937 0.137677,-0.30577 0.258512,-0.70289 0.413559,-1.359059 0.288192,-1.219767 0.403947,-1.467403 0.720595,-1.541636 0.17156,-0.04023 0.304019,-0.02395 0.395541,0.04859 0.124992,0.09909 0.192194,0.384012 0.253104,1.073121 0.09315,1.053784 0.08336,2.152114 -0.02506,2.814501 -0.02029,0.12389 -0.04528,0.31609 -0.05557,0.42714 -0.05899,0.55228 -0.226974,0.88303 -0.520394,1.05552 -0.244173,0.14075 -0.399615,0.1814 -0.677121,0.17707 -0.140715,-0.002 -0.280519,-0.009 -0.310672,-0.0148 z m 1.031487,-0.73577 c 0.424122,-0.33141 0.584812,-2.305597 0.280883,-3.451292 -0.100912,-0.380396 -0.262975,-0.636315 -0.402942,-0.636315 -0.229166,0 -0.431687,0.488579 -0.527903,1.27359 -0.02576,0.21 -0.03431,0.40925 -0.03431,0.79775 0,0.583547 0.03059,0.910867 0.122886,1.315567 0.140801,0.61732 0.343782,0.8706 0.561383,0.70059 z m -12.919216,-0.0189 c -0.404512,-0.0765 -0.709154,-0.033 -1.06288,-0.10217 l -0.243841,-0.40849 c -0.134119,-0.22469 -0.242125,-0.41113 -0.240022,-0.41435 0.0021,-0.003 0.283132,0.0144 0.624523,0.039 l 0.620705,0.0449 0.118786,0.17269 c 0.06534,0.095 0.199158,0.28385 0.297386,0.41972 0.09823,0.13587 0.175254,0.25215 0.171169,0.2584 -0.01811,0.0277 -0.211129,0.0213 -0.285797,-0.01 z m 6.241589,-0.56461 c -0.0063,-0.0433 0.0098,-0.2543 0.03571,-0.46874 0.101465,-0.841457 0.101487,-1.437307 0,-2.123541 -0.02485,-0.168244 -0.04227,-0.310415 -0.03867,-0.315933 0.01421,-0.0218 0.834373,-0.128179 0.846362,-0.109818 0.01908,0.02925 -0.02468,0.701225 -0.0767,1.178025 -0.05308,0.48648 -0.05492,0.55059 -0.01894,0.65718 0.04011,0.11879 0.143907,0.17007 0.343732,0.16978 0.185343,-2.8e-4 0.340862,-0.0261 1.155518,-0.19235 0.301536,-0.0615 0.667488,-0.132 0.813229,-0.15664 0.287536,-0.0486 2.249634,-0.43044 2.315608,-0.45068 0.08587,-0.0263 0.152574,-0.27849 0.334832,-1.266 0.06244,-0.338326 0.118671,-0.627557 0.124969,-0.642725 0.0063,-0.0152 0.04638,-0.03653 0.08907,-0.04751 l 0.07763,-0.01988 -0.05538,0.189062 c -0.03045,0.103985 -0.119879,0.461123 -0.198703,0.793655 -0.168737,0.711808 -0.237515,0.942128 -0.381923,1.278968 -0.09326,0.21751 -0.120953,0.26094 -0.21579,0.33839 -0.162075,0.1323 -0.384667,0.2186 -0.966448,0.374617 -0.170868,0.0458 -0.351791,0.0955 -0.402045,0.11036 -0.05026,0.0148 -0.165387,0.0259 -0.255848,0.0246 -0.09046,-0.002 -0.201481,0.0106 -0.246712,0.0264 -0.04522,0.0158 -0.16036,0.0372 -0.255847,0.0477 -0.09549,0.0104 -0.251736,0.0429 -0.347223,0.0724 -0.09548,0.0294 -0.276406,0.0605 -0.402046,0.069 -0.126849,0.008 -0.265004,0.0341 -0.310671,0.0577 -0.04523,0.0232 -0.160362,0.0521 -0.255848,0.0644 -0.559156,0.0715 -0.692544,0.0942 -0.758407,0.12892 -0.0871,0.0459 -0.255372,0.0885 -0.580719,0.14698 -0.07817,0.0141 -0.156298,0.0444 -0.17361,0.0675 -0.01731,0.023 -0.06578,0.0499 -0.107701,0.0595 -0.07244,0.0168 -0.07678,0.0137 -0.08752,-0.0612 z m -5.382673,-0.41567 c -0.763744,-0.0278 -2.022658,-0.11386 -2.814325,-0.19239 -1.789306,-0.17752 -2.677262,-0.386417 -3.00347,-0.605677 -0.04011,-0.027 -0.06105,-0.0442 -0.07221,-0.0594 -0.192526,-0.12991 1.663429,0.10534 3.678722,0.24983 2.233188,0.160117 3.869151,0.265417 4.189144,0.269647 0.497439,0.007 0.52295,0.009 0.484354,0.0543 -0.203271,0.23598 -1.060597,0.33479 -2.46235,0.28379 z m 5.247802,-0.630797 c -0.206558,-1.09488 -0.466281,-1.633532 -0.912298,-1.892136 -0.11264,-0.06532 -0.148261,-0.07161 -0.415605,-0.07337 -0.160817,-7.54e-4 -0.347917,0.0079 -0.415753,0.0198 -0.06785,0.01198 -0.123355,0.01105 -0.123355,-0.0016 0,-0.04368 0.212188,-0.465553 0.310177,-0.616704 0.122287,-0.188641 0.253491,-0.322207 0.393405,-0.400462 0.09139,-0.05111 0.150698,-0.06172 0.356358,-0.06378 0.285911,-0.003 0.363781,0.03423 0.489783,0.233083 0.19704,0.310976 0.376135,1.121286 0.424965,1.922719 0.01981,0.32514 -0.001,0.99374 -0.03518,1.135687 -0.0091,0.0376 -0.03049,-0.0399 -0.0725,-0.262747 z m -3.54824,0.0429 c -0.08544,-0.005 -1.836804,-0.12984 -3.892177,-0.2757 -2.285999,-0.16224 -3.900764,-0.2652 -4.159353,-0.2652 -0.469354,0 -0.454274,0.006 -0.50654,-0.19697 -0.01856,-0.072 -0.02071,-0.13507 -0.0083,-0.24503 0.02258,-0.20062 0.102783,-0.28696 0.282782,-0.30434 0.06807,-0.007 1.817835,0.10798 3.88834,0.25457 2.070501,0.14659 3.990857,0.27386 4.267173,0.28283 1.027724,0.0333 1.142197,0.0929 1.058989,0.55181 -0.03207,0.17685 -0.0831,0.19973 -0.455919,0.20447 -0.175898,0.002 -0.38971,-7.4e-4 -0.475146,-0.007 z m 4.570535,-0.18227 c -0.08351,-0.07 -0.08503,-0.0989 -0.03164,-0.60101 0.0555,-0.52196 0.08385,-0.899243 0.08434,-1.122163 2e-4,-0.08083 0.004,-0.146952 0.0085,-0.146952 0.01928,0 2.733003,-0.391649 2.819807,-0.406963 l 0.09595,-0.01689 v 0.12701 c 0,0.258237 -0.104112,1.193128 -0.182548,1.639318 -0.02057,0.11706 2.01e-4,0.10748 -0.338287,0.15641 -0.170284,0.0247 -0.936748,0.17209 -1.461986,0.28128 -0.542744,0.11285 -0.925513,0.14752 -0.994188,0.09 z m 6.55153,-0.39363 c -0.0049,-0.0501 -0.01318,-0.28621 -0.01825,-0.52483 -0.014,-0.656776 -0.08829,-1.56212 -0.147098,-1.79257 -0.0096,-0.03754 0.07476,-0.0535 0.646162,-0.122675 0.361438,-0.04375 0.670521,-0.07169 0.686859,-0.06209 -0.01863,0.08107 -0.05239,0.343307 -0.08441,0.459811 -0.05476,0.195125 -0.176505,0.743776 -0.208663,0.9403 -0.03483,0.212864 -0.0631,0.325144 -0.07991,0.317334 -0.122589,0.15673 -0.661404,0.85468 -0.774378,0.87572 -0.0062,0 -0.01531,-0.0409 -0.02029,-0.0909 z m -10.098858,-0.14748 c -0.07433,-0.11749 -0.219205,-0.20554 -0.371746,-0.22599 -0.208735,-0.028 -0.189089,0.0131 -0.202669,-0.42413 -0.0066,-0.211778 -0.01984,-0.582259 -0.02948,-0.823294 -0.02385,-0.597184 -0.02368,-1.571219 2.55e-4,-1.759037 0.03076,-0.241135 0.1024,-0.438035 0.199269,-0.547791 0.191596,-0.217033 1.057016,-0.556318 1.884866,-0.738964 0.499195,-0.110124 1.426481,-0.256747 1.813066,-0.286682 l 0.104368,-0.008 0.0097,0.139961 c 0.03148,0.456196 0.08816,2.076124 0.09005,2.57459 l 0.0021,0.587221 -0.420324,0.06163 c -0.231176,0.03393 -0.433826,0.06249 -0.450327,0.06356 -0.01803,7.54e-4 -0.03498,-0.02872 -0.04251,-0.07499 -0.02309,-0.142148 -0.155404,-0.545657 -0.224287,-0.68402 -0.09015,-0.181058 -0.221712,-0.313496 -0.382839,-0.385379 -0.11989,-0.0535 -0.148978,-0.05603 -0.332326,-0.02962 -0.369959,0.05342 -0.542254,0.181026 -0.79781,0.590752 -0.240951,0.386338 -0.486092,1.002834 -0.694551,1.746803 -0.04746,0.16935 -0.08783,0.31088 -0.08973,0.31449 -0.0021,0.004 -0.03125,-0.0374 -0.06523,-0.091 z m 6.433108,0.0708 c 0,-0.0144 0.02534,-0.19981 0.05632,-0.41202 0.05914,-0.40517 0.126023,-1.045407 0.126589,-1.211842 6.92e-4,-0.228929 -0.07467,-0.1994 0.846253,-0.331248 0.818403,-0.117163 0.926244,-0.129175 0.926244,-0.103179 0,0.034 -0.208536,1.148435 -0.257985,1.378699 -0.06198,0.28858 -0.102199,0.38336 -0.165283,0.38941 -0.04802,0.005 -1.403637,0.28159 -1.481887,0.30277 -0.02765,0.007 -0.05026,0.002 -0.05026,-0.0126 z m -7.431278,-0.42238 c 0.03932,-0.0716 0.04731,-0.11432 0.04731,-0.2529 0,-0.18865 -0.03045,-0.283244 -0.105974,-0.329091 -0.02717,-0.0165 -0.183477,-0.04368 -0.347385,-0.0604 -0.2784,-0.02848 -0.301865,-0.02703 -0.356322,0.02172 -0.07786,0.06962 -0.103475,0.156551 -0.103794,0.352151 -2.39e-4,0.14104 0.0066,0.17344 0.04999,0.23949 l 0.05027,0.0764 -0.100508,-0.01 c -0.05528,-0.005 -1.453307,-0.10328 -3.106724,-0.21789 -1.653416,-0.11462 -3.073464,-0.21602 -3.155699,-0.22535 l -0.149561,-0.017 0.03527,-0.08863 c 0.02485,-0.06249 0.0353,-0.140124 0.03534,-0.263112 5.9e-5,-0.153286 -0.0064,-0.185625 -0.05321,-0.265913 l -0.05911,-0.07353 -0.263853,-0.02701 c -0.294518,-0.03017 -0.338506,0.0062 -0.383718,0.139722 -0.03894,0.115329 -0.03373,0.392356 0.009,0.475431 l 0.03479,0.06778 -0.08452,-0.01496 c -0.08363,-0.01487 -0.08467,-0.01625 -0.09986,-0.140944 -0.0084,-0.06923 -0.0289,-0.170041 -0.04543,-0.223925 -0.01655,-0.05388 -0.0282,-0.112641 -0.02585,-0.130572 0.0026,-0.01788 -0.0045,-0.0872 -0.01514,-0.153955 -0.01064,-0.06678 -0.02222,-0.152838 -0.02572,-0.191326 -0.0035,-0.03845 -0.03266,-0.284104 -0.06479,-0.545825 -0.04983,-0.405843 -0.05949,-0.556126 -0.06563,-1.02167 -0.0039,-0.300209 -0.0085,-0.589908 -0.01021,-0.643792 -0.0017,-0.05388 0.0066,-0.135762 0.01811,-0.181946 0.06898,-0.274687 0.0808,-0.297491 0.233022,-0.449449 0.08287,-0.08273 0.173797,-0.158888 0.202066,-0.169243 0.02828,-0.01036 0.05961,-0.02817 0.06967,-0.03953 0.05769,-0.06547 1.053328,-0.490935 1.073921,-0.459411 0.0039,0.0062 0.04744,-0.01181 -0.07241,0.04146 -0.208169,0.09246 -0.534651,0.249002 -0.654281,0.337489 -0.170488,0.126105 -0.305952,0.330995 -0.334775,0.506326 -0.02927,0.178078 -0.02741,0.211682 0.01375,0.245409 0.03899,0.03193 7.435483,0.407355 7.504381,0.380874 0.02471,-0.0095 0.06245,-0.07453 0.09594,-0.165436 0.08853,-0.240284 0.264218,-0.3865 0.75815,-0.631036 0.639072,-0.31638 1.619371,-0.68402 2.432564,-0.912282 0.190186,-0.05334 0.353838,-0.109373 0.36365,-0.124418 0.01089,-0.01665 0.111251,-0.02119 0.257273,-0.01166 0.216449,0.01427 0.249454,0.0099 0.344135,-0.04521 0.187006,-0.10885 0.248299,-0.282009 0.29777,-0.841106 0.01566,-0.177042 0.06511,-0.643092 0.109868,-1.03567 0.136489,-1.196978 0.165145,-1.749857 0.10814,-2.086449 -0.06295,-0.371669 -0.226645,-0.563517 -0.522607,-0.61239 -0.05384,-0.0089 -0.245923,-0.04122 -0.426846,-0.07184 -0.922567,-0.156264 -2.563775,-0.243147 -4.423607,-0.234189 -1.327375,0.0062 -1.481194,0.04321 -1.776806,0.425269 -0.163579,0.211422 -0.354623,0.612751 -0.592031,1.243616 -0.126925,0.33729 -0.765828,2.164634 -0.8553,2.446281 -0.03838,0.120826 -0.0575,0.149893 -0.116298,0.176882 -0.0387,0.01781 -0.07448,0.02594 -0.07952,0.01827 -0.0088,-0.01343 0.09017,-0.2644 0.161619,-0.409702 0.01891,-0.03854 0.07808,-0.202236 0.131467,-0.363887 0.108502,-0.328531 0.254496,-0.729614 0.308369,-0.847147 0.01953,-0.04259 0.06675,-0.170517 0.104974,-0.284333 0.06027,-0.179468 0.12919,-0.363072 0.445778,-1.187607 0.253782,-0.660954 0.464144,-1.026575 0.689931,-1.199134 0.392233,-0.206624 0.935452,-0.381433 1.259026,-0.414969 0.105538,-0.009 0.241227,-0.02794 0.301534,-0.04191 2.130846,-0.272375 6.541113,-0.613534 9.036177,0.40565 0.02982,0.02365 0.139455,0.08571 0.243603,0.137973 0.249839,0.125352 0.459448,0.291134 0.563196,0.44548 0.49298,1.113457 0.928781,2.70388 1.461602,3.824138 l -0.05105,0.02096 c -0.02807,0.01151 -0.193731,0.02134 -0.368129,0.02188 l -0.317069,7.44e-4 -0.269663,-1.035662 c -0.534121,-2.051301 -0.667578,-2.444093 -0.917196,-2.699399 -0.17814,-0.182207 -0.447129,-0.281509 -0.874541,-0.322828 -0.248703,-0.02403 -2.272292,0.03438 -2.40314,0.06947 -0.251446,0.06724 -0.347589,0.146269 -0.411972,0.338494 -0.07774,0.232154 -0.176967,0.990016 -0.382585,2.922264 -0.07045,0.661984 -0.137501,1.257494 -0.149004,1.323392 -0.02071,0.118467 -0.02001,0.12156 0.06304,0.285362 l 0.08396,0.165605 -0.07687,0.01496 c -0.04228,0.0082 -0.196111,0.02848 -0.341851,0.04498 -1.241555,0.140581 -2.292395,0.408136 -3.07127,0.781986 -0.450859,0.216395 -0.55932,0.421293 -0.602943,1.139041 -0.02001,0.329261 -0.01714,0.488863 0.03815,2.136776 0.0096,0.284812 0.01745,0.533572 0.01756,0.552832 1.17e-4,0.0258 -0.05063,0.035 -0.193345,0.035 h -0.193514 l 0.04732,-0.0861 z m -0.194154,-1.058482 c 0.09225,-0.07208 0.233407,-0.307706 0.282566,-0.471647 0.03283,-0.109509 0.04003,-0.1855 0.04053,-0.427118 6.92e-4,-0.272376 -0.0036,-0.307477 -0.05675,-0.479284 -0.07159,-0.23141 -0.159349,-0.382086 -0.284321,-0.488112 -0.08339,-0.07077 -0.116056,-0.08215 -0.23399,-0.0816 -0.104644,3.77e-4 -0.154348,0.01489 -0.21016,0.06064 -0.106578,0.08751 -0.219299,0.278578 -0.277575,0.470504 -0.04487,0.147789 -0.05088,0.199853 -0.05004,0.433858 0.0014,0.370126 0.04604,0.539416 0.208277,0.788365 0.09045,0.138801 0.144684,0.197843 0.211825,0.230649 0.11157,0.0545 0.27381,0.03861 0.369626,-0.03631 z m -7.217647,-0.43973 c 0.112871,-0.08615 0.203965,-0.255358 0.259812,-0.482569 0.03253,-0.132362 0.03779,-0.203977 0.03214,-0.438142 -0.0058,-0.24161 -0.01445,-0.304989 -0.06296,-0.463173 -0.175316,-0.571492 -0.503218,-0.724464 -0.748667,-0.349239 -0.313907,0.479873 -0.21027,1.457271 0.184504,1.740093 0.119822,0.08584 0.216174,0.08384 0.335159,-0.0069 z m 19.473667,0.915361 c 0.0049,-0.02457 0.02641,-0.132799 0.04773,-0.240559 0.04644,-0.234687 0.180359,-0.773812 0.200713,-0.808108 0.008,-0.01336 0.04992,0.01213 0.09328,0.05672 0.110789,0.123281 0.135222,0.342418 0.09044,0.499564 -0.0731,0.21711 -0.212866,0.479315 -0.36038,0.518246 -0.06875,0.01596 -0.07939,0.01212 -0.07178,-0.02588 z m -7.470753,-1.282186 c -0.0067,-0.381595 -0.03169,-1.1221 -0.05559,-1.645538 -0.02388,-0.523426 -0.04095,-0.955887 -0.03792,-0.961038 0.01906,-0.03231 2.31469,-0.311376 2.633772,-0.320165 l 0.232636,-0.0062 0.03218,0.237919 c 0.0406,0.300038 0.04074,0.290436 -0.0034,0.222812 -0.06286,-0.09631 -0.125373,-0.116471 -0.300805,-0.09705 -0.209976,0.02326 -0.223335,0.02986 -0.256047,0.126758 -0.0382,0.113148 -0.03401,0.18009 0.0169,0.270755 0.0432,0.07693 0.04834,0.07862 0.25128,0.08252 0.230955,0.0046 0.276039,-0.01888 0.315569,-0.162781 0.02319,-0.08447 0.02322,-0.08437 0.0361,0.0791 0.04654,0.591757 0.06826,1.066903 0.07816,1.710196 0.01053,0.687821 0.0093,0.734765 -0.02067,0.734765 -0.04198,0 -2.737934,0.386637 -2.835155,0.406625 l -0.07479,0.01536 z m 3.03417,-0.504899 c -0.01428,-0.951445 -0.05817,-1.635012 -0.146226,-2.278166 l -0.02543,-0.185831 0.202939,-0.01818 c 0.440826,-0.03953 0.999619,-0.07054 1.607199,-0.08931 0.538175,-0.01658 0.639256,-0.01351 0.653053,0.0198 0.009,0.02172 0.01645,0.123903 0.01659,0.227089 l 2.87e-4,0.187605 -0.04836,-0.06862 c -0.04456,-0.06325 -0.06255,-0.06862 -0.229331,-0.06862 -0.248718,0 -0.305992,0.05143 -0.306854,0.275423 -3.44e-4,0.133904 0.06155,0.170478 0.290976,0.171499 0.189874,7.54e-4 0.212846,-0.0046 0.251278,-0.05994 l 0.04229,-0.06087 -3.46e-4,0.221806 c -2.86e-4,0.122 -0.0079,0.408253 -0.01707,0.636124 l -0.01655,0.414324 -0.109565,0.179399 c -0.122564,0.200675 -0.209523,0.423227 -0.295177,0.755397 -0.03176,0.123158 -0.05957,0.226781 -0.06181,0.230266 -0.0044,0.0069 -1.729969,0.25958 -1.771746,0.25958 -0.01991,0 -0.02692,-0.146324 -0.03598,-0.748766 z m 1.934758,0.405872 c 0.06301,-0.315689 0.219392,-0.715344 0.339857,-0.868623 0.05662,-0.072 0.07794,-0.123456 0.09044,-0.218122 0.009,-0.06816 0.02177,-0.524725 0.02841,-1.014624 l 0.01206,-0.89076 0.358061,0.01704 c 0.701733,0.03331 1.784756,0.100423 1.861108,0.115291 0.109012,0.02126 0.119132,0.06348 0.09825,0.410547 -0.05591,0.679875 -0.01451,1.50074 -0.102656,2.163512 -0.0044,0.02495 -1.168803,0.18386 -1.330153,0.181526 -0.03498,-3.76e-4 -0.0686,-0.03177 -0.107919,-0.100353 -0.118126,-0.206064 -0.315898,-0.27781 -0.58739,-0.21308 -0.170112,0.04053 -0.2769,0.12573 -0.398627,0.3179 -0.09667,0.152618 -0.108389,0.162735 -0.188541,0.162735 -0.08018,0 -0.0847,-0.0039 -0.0729,-0.06302 v 2.3e-5 z m -13.686025,-1.715848 c -1.938415,-0.0974 -3.529603,-0.184803 -3.535635,-0.194205 -0.0062,-0.0094 10e-4,-0.05058 0.01611,-0.09148 0.09139,-0.249371 0.518457,-0.475847 1.676459,-0.889049 0.948191,-0.338333 1.492343,-0.554583 1.758387,-0.698857 0.04911,-0.02664 0.16689,-0.04958 0.2924,-0.05695 0.115588,-0.0069 0.325292,-0.02518 0.466007,-0.04084 0.444863,-0.04942 1.765149,-0.06594 2.494515,-0.03108 1.593712,0.07606 3.135964,0.224224 3.737206,0.358935 l 0.201021,0.04506 -0.264984,0.07638 c -0.780865,0.225184 -1.982638,0.703332 -2.46436,0.980443 -0.33083,0.190337 -0.511204,0.373259 -0.588725,0.597077 l -0.04444,0.128286 -0.109676,-0.003 c -0.06034,-0.0016 -1.695726,-0.08301 -3.634138,-0.180428 z m 8.534532,-1.104215 c -0.04926,-0.09717 -0.085,-0.197045 -0.085,-0.237581 0,-0.06571 0.0058,-0.06992 0.09593,-0.07015 0.05277,-1.53e-4 0.141175,-0.0085 0.196456,-0.01858 0.09232,-0.01689 0.09847,-0.01459 0.07543,0.02825 -0.01379,0.02564 -0.04717,0.0466 -0.07417,0.0466 -0.07404,0 -0.11509,0.05871 -0.107902,0.154452 0.01293,0.172183 0.199653,0.208114 0.2125,0.04091 0.0028,-0.03822 0.03173,-0.117563 0.06396,-0.176252 l 0.05861,-0.106709 0.977702,-0.06648 c 0.53774,-0.03654 1.040498,-0.07223 1.117232,-0.07929 l 0.139519,-0.01282 0.115817,0.160647 0.115813,0.160646 -0.237059,0.01973 c -0.40751,0.03392 -2.338267,0.272054 -2.514071,0.310111 -0.06254,0.01351 -0.06997,0.0062 -0.150766,-0.153409 z m 2.921228,-0.346869 c -0.0603,-0.08491 -0.101422,-0.155082 -0.09137,-0.155896 0.0101,-7.52e-4 0.543567,-0.03845 1.185617,-0.08366 l 1.167342,-0.08217 0.12661,0.173549 0.126611,0.173542 -0.581234,0.0192 c -0.55329,0.01827 -1.333332,0.06263 -1.668585,0.09493 l -0.155337,0.01496 z m 4.066152,0.107161 c -0.296508,-0.01988 -0.733111,-0.04468 -0.970225,-0.05503 l -0.43112,-0.0188 -0.131208,-0.171946 -0.131204,-0.171953 0.269918,-0.01665 c 0.148459,-0.0091 0.348647,-0.03347 0.444847,-0.05403 0.161735,-0.03454 0.194115,-0.03262 0.429457,0.02464 0.438524,0.09688 0.830628,0.276014 1.2231,0.468791 l 0.07309,0.03538 -0.118785,-0.0023 c -0.06533,-7.54e-4 -0.361387,-0.01842 -0.657894,-0.0383 z m -7.043486,-0.256755 c 0.0039,-0.02695 0.0654,-0.590605 0.136438,-1.252596 0.130883,-1.219491 0.235017,-2.09645 0.279185,-2.351248 l 0.02427,-0.139953 0.04097,0.405866 c 0.02254,0.223226 0.08823,0.884519 0.146011,1.469529 l 0.105048,1.063665 -0.230261,0.01673 c -0.243075,0.01765 -0.274928,0.03146 -0.347572,0.1504 -0.03786,0.06194 -0.0465,0.107967 -0.05207,0.277134 -0.0036,0.111551 0.0017,0.249317 0.01192,0.306141 l 0.01863,0.103308 h -0.0699 c -0.05717,0 -0.06859,-0.009 -0.06265,-0.04897 z m 1.222276,-0.234679 c -0.001,-0.352741 -0.08033,-0.493262 -0.305447,-0.541066 -0.06936,-0.01473 -0.08847,-0.0307 -0.09541,-0.0797 -0.0048,-0.03369 -0.07481,-0.734067 -0.155643,-1.556381 -0.08082,-0.822299 -0.155128,-1.51015 -0.1651,-1.528565 -0.02972,-0.05489 0.04611,-0.172328 0.142195,-0.220248 0.166023,-0.0828 0.327888,-0.104929 0.884025,-0.120833 l 0.559889,-0.01604 0.02112,0.150859 c 0.05238,0.374049 0.494699,3.919864 0.494699,3.965773 0,0.04798 -0.03635,0.05366 -0.543678,0.08534 -0.29901,0.01864 -0.609465,0.04137 -0.689876,0.05051 l -0.146197,0.01658 z m -2.265532,0.03177 c -0.120614,-0.02771 -0.327048,-0.07661 -0.458736,-0.108796 -0.131695,-0.03216 -0.35784,-0.07077 -0.502559,-0.08574 -0.14471,-0.01496 -0.337133,-0.03977 -0.427594,-0.05503 -0.70806,-0.11968 -2.809572,-0.254046 -3.965639,-0.253569 -0.627431,2.76e-4 -0.957199,0.01481 -1.652156,0.073 l -0.226718,0.01896 0.01123,-0.08587 c 0.0111,-0.08506 0.568932,-1.720973 0.770631,-2.260052 0.390132,-1.042641 0.627539,-1.412091 0.96153,-1.496433 0.189712,-0.04789 1.283607,-0.09302 1.807639,-0.07453 0.266356,0.0094 0.895465,0.0294 1.398024,0.04452 1.27224,0.03822 1.85252,0.08806 2.640712,0.226782 0.602065,0.105955 0.6318,0.146239 0.628838,0.851851 -0.0017,0.417677 -0.02205,0.668254 -0.134802,1.66546 -0.03917,0.346395 -0.0887,0.799849 -0.110055,1.007686 -0.02136,0.20783 -0.05134,0.407262 -0.06662,0.443208 -0.06566,0.154314 -0.270252,0.181241 -0.673703,0.08867 z m 3.892905,-0.0069 c -0.0052,-0.03462 -0.100508,-0.787252 -0.211732,-1.67247 -0.111213,-0.885218 -0.224763,-1.787453 -0.252321,-2.004969 l -0.05011,-0.395487 0.375712,-0.01973 c 0.241591,-0.01274 0.457254,-0.0084 0.604145,0.01228 0.238509,0.03347 0.492035,0.101482 0.51729,0.138817 0.01161,0.01719 0.206907,1.542134 0.472496,3.689498 0.01189,0.09614 0.01625,0.183052 0.0096,0.193153 -0.0087,0.01336 -1.005664,0.09728 -1.433096,0.120663 -0.01237,7.46e-4 -0.02679,-0.0271 -0.03201,-0.06172 z m 1.572187,-0.08181 c -0.01096,-0.04966 -0.466869,-3.734287 -0.466869,-3.773471 0,-0.04943 0.07083,0.02095 0.179848,0.178723 0.05422,0.07844 0.134533,0.236614 0.178486,0.351512 0.113207,0.295917 0.347787,1.121825 0.628377,2.212324 0.132706,0.515737 0.245159,0.952228 0.249911,0.970005 0.0091,0.03416 -0.08879,0.0492 -0.528508,0.08107 -0.18487,0.01336 -0.234741,0.0092 -0.241245,-0.02027 z"
   style="stroke-width:0.022617" />
</svg>
