<?xml version="1.0" encoding="UTF-8" standalone="no"?>
<svg
   version="1.1"
   id="svg2985"
   x="0px"
   y="0px"
   viewBox="-46.166 84.6162 48 48.000001"
   enable-background="new -46.166 84.6162 1446.968 725.2566"
   xml:space="preserve"
   sodipodi:docname="CarClassicSmall.svg"
   inkscape:version="1.1.1 (3bf5ae0d25, 2021-09-20, custom)"
   width="48"
   height="48"
   xmlns:inkscape="http://www.inkscape.org/namespaces/inkscape"
   xmlns:sodipodi="http://sodipodi.sourceforge.net/DTD/sodipodi-0.dtd"
   xmlns="http://www.w3.org/2000/svg"
   xmlns:svg="http://www.w3.org/2000/svg"><defs
   id="defs6" /><sodipodi:namedview
   id="namedview4"
   pagecolor="#ffffff"
   bordercolor="#666666"
   borderopacity="1.0"
   inkscape:pageshadow="2"
   inkscape:pageopacity="0.0"
   inkscape:pagecheckerboard="0"
   showgrid="false"
   showguides="true"
   inkscape:guide-bbox="true"
   inkscape:zoom="9.7341468"
   inkscape:cx="25.066398"
   inkscape:cy="3.9551489"
   inkscape:window-width="1920"
   inkscape:window-height="1080"
   inkscape:window-x="0"
   inkscape:window-y="0"
   inkscape:window-maximized="1"
   inkscape:current-layer="svg2985"
   units="px"><sodipodi:guide
     position="664.81853,395.17187"
     orientation="1,0"
     id="guide8" /></sodipodi:namedview>
<path
   id="path2995"
   d="m -22.652766,125.04245 c -0.03309,-0.0116 -0.249719,-0.0459 -0.481389,-0.0763 -0.501966,-0.0659 -0.928358,-0.27713 -1.121115,-0.55548 -0.183963,-0.26568 -0.403281,-0.68645 -0.403281,-0.77366 0,-0.0406 -0.02735,-0.15428 -0.06078,-0.25269 -0.227825,-0.67079 -0.354895,-1.56276 -0.413591,-2.90314 l -0.02709,-0.61869 -0.120348,-0.0205 c -0.406853,0.0848 -0.689389,0.10793 -1.03318,0.0209 -0.09365,-0.0216 -0.432047,-0.12936 -0.751968,-0.23942 -1.124526,-0.38762 -2.350181,-0.61733 -3.490068,-0.41034 l -0.220637,0.0418 -0.280812,-0.40571 c -0.154446,-0.22314 -0.434253,-0.61027 -0.621793,-0.86034 l -0.340982,-0.45461 0.982834,0.0445 c 1.766054,0.08 4.476513,0.0465 5.158479,-0.0638 0.681528,-0.11025 1.120432,-0.25729 1.406618,-0.47124 0.231866,-0.17334 0.344534,-0.34054 0.44332,-0.65781 0.04036,-0.12964 0.103857,-0.30218 0.14113,-0.38343 0.03728,-0.0812 0.177878,-0.54528 0.312456,-1.03116 0.134582,-0.48587 0.387822,-1.31128 0.562744,-1.83415 0.301502,-0.90129 0.324874,-0.95249 0.449057,-0.98385 0.813747,-0.20535 1.684661,-0.19662 2.109605,0.0211 0.687302,0.35224 1.261798,1.25112 1.610647,2.52008 0.173713,0.6319 0.475692,2.07445 0.508264,2.42793 0.04916,0.53342 0.05911,1.89225 0.01834,2.50422 -0.09076,1.36225 -0.365442,2.85854 -0.675346,3.67904 -0.280231,0.7419 -0.804283,1.40473 -1.234083,1.56093 -0.421254,0.15307 -2.136521,0.27725 -2.426999,0.17572 z m 2.439157,-1.59093 c 0.518616,-0.37959 0.991822,-1.60247 1.212297,-3.13276 0.10671,-0.74073 0.148454,-2.25605 0.08236,-2.99 -0.143809,-1.59716 -0.544328,-2.77497 -1.064629,-3.13081 -0.383116,-0.26204 -0.707282,-0.1361 -1.087619,0.42255 -0.602656,0.8852 -0.980106,2.68065 -0.979703,4.66034 2.54e-4,0.95944 0.07626,1.72651 0.244501,2.46558 0.144786,0.63601 0.269212,0.96233 0.514723,1.34987 0.330862,0.52226 0.688708,0.6402 1.078031,0.35524 z m -20.925562,-0.26427 c -0.397292,-0.0758 -0.856632,-0.26409 -1.11971,-0.45914 -0.30679,-0.22748 -0.652322,-0.7772 -0.77624,-1.23504 -0.428475,-1.13432 -0.496151,-2.10908 -0.573375,-3.33067 0.02991,-0.47088 -0.151685,-2.80686 0.201017,-2.80751 0.140597,0 0.183629,0.0287 0.250684,0.16698 0.123442,0.25464 0.519056,0.53064 1.034904,0.72199 0.972605,0.36078 2.687875,0.63831 6.074322,0.98277 l 0.425266,0.0432 0.423382,0.67762 c 0.238758,0.43749 0.361322,0.43832 0.332559,0.82934 0.01407,0.0335 -0.08676,0.0556 -0.249881,0.0548 -0.347962,0.0284 -1.315233,-0.1256 -1.448738,0.19143 -0.428836,0.49724 -0.295828,-0.007 -0.507945,0.56316 -0.287458,0.94465 -0.448052,1.96685 -0.964663,2.65508 -0.2233,0.28798 -0.996275,0.81278 -1.351939,0.9179 -0.33491,0.099 -1.296782,0.11441 -1.749689,0.0281 z m 35.4370232,-2.33336 c -0.3101696,-0.0585 -0.6804838,-0.21112 -0.8147924,-0.33589 -0.3108339,-0.28877 -0.5599338,-0.73075 -0.6140105,-1.08948 -0.017706,-0.11747 -0.076343,-0.41245 -0.1302957,-0.65552 -0.2020879,-0.91036 -0.2965711,-1.78678 -0.235051,-2.18015 0.030612,-0.19578 0.048433,-0.21395 0.3515826,-0.35861 0.5763032,-0.27499 0.7455948,-0.4453 1.0167703,-1.02291 0.3022209,-0.64366 0.5674759,-1.47966 0.9078189,-2.86094 0.6326246,-2.56769 0.886717,-3.08898 1.5818021,-3.24525 0.3766018,-0.0846 0.6673647,-0.0504 0.8682641,0.10237 0.2743839,0.20861 0.4218986,0.80837 0.5556016,2.25899 0.2044659,2.21828 0.1829851,4.53035 -0.055032,5.92471 -0.044523,0.26081 -0.099418,0.66542 -0.1219851,0.89917 -0.1294984,1.16261 -0.4982395,1.85885 -1.1423374,2.22193 -0.5359862,0.29632 -0.8772065,0.3819 -1.4863671,0.37277 -0.3088904,-0.005 -0.6157747,-0.0186 -0.6819659,-0.031 z m 2.2642522,-1.54885 c 0.9310037,-0.69765 1.2837406,-4.85343 0.616578,-7.26521 -0.2215235,-0.80077 -0.5772655,-1.3395 -0.8845122,-1.3395 -0.5030516,0 -0.9476117,1.0285 -1.1588251,2.681 -0.056494,0.44207 -0.075312,0.86151 -0.075312,1.67931 0,1.22842 0.067114,1.91747 0.2697476,2.76938 0.3090837,1.29949 0.7546569,1.83268 1.2323125,1.47478 z m -28.3594074,-0.0398 c -0.887963,-0.16109 -1.556692,-0.0694 -2.333173,-0.21504 l -0.535262,-0.85992 c -0.294404,-0.47296 -0.531494,-0.86546 -0.52688,-0.87223 0.0046,-0.007 0.621512,0.0301 1.370915,0.082 l 1.362531,0.0943 0.260752,0.36353 c 0.143412,0.19994 0.43718,0.59754 0.652802,0.88355 0.215622,0.28602 0.384707,0.53079 0.375739,0.54396 -0.03972,0.0583 -0.463457,0.0447 -0.627369,-0.0201 z m 13.701118,-1.18854 c -0.01365,-0.0912 0.02162,-0.53529 0.07839,-0.98672 0.222731,-1.77134 0.222774,-3.02564 0,-4.4702 -0.05458,-0.35417 -0.09278,-0.65346 -0.08488,-0.66506 0.03119,-0.0458 1.831565,-0.26983 1.857879,-0.23118 0.04188,0.0615 -0.05415,1.47614 -0.168349,2.47983 -0.116515,1.02409 -0.120571,1.15902 -0.04158,1.3834 0.08805,0.25008 0.315891,0.35801 0.754537,0.35741 0.406853,-6.9e-4 0.748237,-0.055 2.536518,-0.40492 0.66191,-0.1295 1.465226,-0.27786 1.785149,-0.32972 0.631179,-0.10229 4.9382444,-0.90611 5.0830618,-0.94871 0.188499,-0.0553 0.3349283,-0.58627 0.7350007,-2.66503 0.1370594,-0.71221 0.2605051,-1.32106 0.2743241,-1.353 0.013819,-0.032 0.1018034,-0.077 0.1955165,-0.1 l 0.1703892,-0.0418 -0.1215685,0.39798 c -0.066862,0.2189 -0.2631477,0.9707 -0.4361781,1.67071 -0.3704019,1.49841 -0.5213793,1.98323 -0.8383774,2.6923 -0.2046879,0.45787 -0.2655016,0.54931 -0.4736869,0.71232 -0.3557759,0.27853 -0.8443955,0.46017 -2.1214818,0.78863 -0.3750814,0.0965 -0.772226,0.201 -0.8825465,0.23228 -0.1103163,0.0313 -0.3630471,0.0545 -0.5616181,0.0517 -0.198573,-0.003 -0.442277,0.0222 -0.541562,0.0556 -0.09929,0.0334 -0.352017,0.0786 -0.56162,0.10041 -0.209604,0.0218 -0.552595,0.0903 -0.762199,0.15229 -0.209606,0.062 -0.606751,0.12732 -0.882546,0.14523 -0.278451,0.0181 -0.581717,0.072 -0.681965,0.12127 -0.09929,0.0488 -0.352018,0.10972 -0.561622,0.13543 -1.227422,0.15052 -1.520225,0.19825 -1.664803,0.27139 -0.191202,0.0967 -0.560576,0.18637 -1.274757,0.30938 -0.171598,0.0295 -0.343095,0.0934 -0.381098,0.14194 -0.03801,0.0485 -0.144394,0.10498 -0.236416,0.12548 -0.158998,0.0354 -0.168547,0.029 -0.192128,-0.12872 z m -11.815684,-0.875 c -1.676516,-0.0585 -4.440009,-0.23966 -6.177822,-0.405 -3.927769,-0.37367 -5.876951,-0.81343 -6.593018,-1.27499 -0.08805,-0.0568 -0.134023,-0.093 -0.158512,-0.12514 -0.422622,-0.27348 3.651453,0.22174 8.075294,0.52592 4.902139,0.33705 8.493299,0.55871 9.195728,0.5676 1.091947,0.0139 1.147949,0.0198 1.063225,0.1142 -0.446208,0.49676 -2.328157,0.70478 -5.405191,0.59743 z m 11.519628,-1.32795 c -0.453426,-2.30477 -1.023552,-3.43869 -2.002616,-3.98308 -0.247265,-0.13748 -0.325456,-0.15072 -0.912312,-0.15455 -0.353018,-0.003 -0.763723,0.0164 -0.912633,0.0417 -0.148928,0.0252 -0.270777,0.0233 -0.270777,-0.005 0,-0.0919 0.465781,-0.98001 0.680883,-1.29819 0.268434,-0.3971 0.556442,-0.67826 0.863568,-0.84301 0.200647,-0.10764 0.330804,-0.12997 0.782258,-0.13428 0.627611,-0.006 0.798543,0.072 1.075141,0.49066 0.432528,0.65463 0.825661,2.3604 0.932851,4.04748 0.04349,0.68445 -0.0021,2.09189 -0.07722,2.39068 -0.01992,0.0791 -0.06688,-0.0841 -0.159158,-0.55309 z m -7.788867,0.0903 c -0.18754,-0.0122 -4.032029,-0.27332 -8.543845,-0.58038 -5.018074,-0.34151 -8.562699,-0.55826 -9.130338,-0.55826 -1.030292,0 -0.997196,0.0124 -1.111928,-0.41462 -0.04072,-0.15153 -0.04543,-0.28434 -0.01828,-0.51581 0.04956,-0.42233 0.225629,-0.60408 0.620752,-0.64067 0.149415,-0.0139 3.990392,0.2273 8.535421,0.53589 4.545032,0.30859 8.760472,0.5765 9.367022,0.59536 2.255986,0.0701 2.50727,0.19565 2.324624,1.16161 -0.07039,0.37227 -0.182418,0.42045 -1.000805,0.43045 -0.386115,0.005 -0.85547,-9.5e-4 -1.04301,-0.0135 z m 10.032941,-0.38368 c -0.183304,-0.14713 -0.186654,-0.20815 -0.06946,-1.2652 0.121822,-1.09874 0.184072,-1.89296 0.185151,-2.36222 2.88e-4,-0.17015 0.0088,-0.30935 0.01866,-0.30935 0.04233,0 5.999306,-0.82445 6.1898545,-0.85668 l 0.210608,-0.0357 v 0.26737 c 0,0.54359 -0.2285289,2.51159 -0.4007185,3.45089 -0.04518,0.24641 2.86e-4,0.22625 -0.742582,0.32924 -0.373799,0.0518 -2.056292,0.36225 -3.20926,0.59212 -1.191396,0.23754 -2.031618,0.3105 -2.182374,0.18951 z m 14.3814882,-0.82864 c -0.010879,-0.10532 -0.028919,-0.60249 -0.040097,-1.1048 -0.030736,-1.38258 -0.1938188,-3.28838 -0.3228997,-3.7735 -0.021011,-0.079 0.1641024,-0.11264 1.41841136,-0.25824 0.79340815,-0.0921 1.47188515,-0.15092 1.50774685,-0.1307 -0.040875,0.17065 -0.1149938,0.72269 -0.1852867,0.96792 -0.1202101,0.41077 -0.3874563,1.5657 -0.4580423,1.9794 -0.076437,0.44809 -0.13851914,0.68446 -0.17542316,0.66801 -0.26909977,0.32993 -1.45186915,1.79916 -1.69986245,1.84347 -0.013615,0 -0.033643,-0.0861 -0.044531,-0.1915 z m -22.1683502,-0.31037 c -0.163169,-0.24728 -0.481188,-0.43268 -0.816033,-0.47571 -0.458204,-0.0589 -0.415077,0.0276 -0.444886,-0.8928 -0.01445,-0.44583 -0.04355,-1.22573 -0.06468,-1.73311 -0.05235,-1.25712 -0.052,-3.30753 5.76e-4,-3.70291 0.06754,-0.50759 0.224778,-0.92208 0.437425,-1.15311 0.420571,-0.45688 2.320291,-1.1711 4.137534,-1.55558 1.095801,-0.23182 3.131312,-0.54047 3.979919,-0.60348 l 0.229093,-0.017 0.02121,0.29461 c 0.06916,0.96033 0.193526,4.37038 0.19768,5.41968 l 0.0049,1.23615 -0.922663,0.12974 c -0.507461,0.0713 -0.952307,0.13158 -0.98853,0.13383 -0.03963,0.003 -0.07679,-0.0605 -0.09331,-0.15795 -0.05069,-0.29923 -0.341135,-1.14865 -0.492339,-1.4399 -0.197891,-0.38115 -0.486685,-0.65994 -0.840386,-0.81125 -0.263171,-0.11259 -0.327027,-0.11804 -0.729503,-0.0623 -0.812103,0.11249 -1.190313,0.38105 -1.751293,1.24358 -0.528925,0.81325 -1.067036,2.11103 -1.524638,3.67715 -0.104159,0.35648 -0.192805,0.65439 -0.196979,0.662 -0.0042,0.008 -0.06861,-0.0786 -0.143185,-0.19165 z m 14.1215367,0.14918 c 0,-0.0304 0.055643,-0.42062 0.1236328,-0.86736 0.1298346,-0.8529 0.2766409,-2.20065 0.2778846,-2.551 0.00177,-0.48192 -0.1639217,-0.41975 1.8576371,-0.6973 1.7965046,-0.24664 2.0332257,-0.27192 2.0332257,-0.21721 0,0.0716 -0.4577602,2.41756 -0.5663069,2.90226 -0.13605,0.60749 -0.224345,0.80701 -0.3628208,0.81973 -0.1054198,0.01 -3.0811686,0.59276 -3.2529445,0.63737 -0.060672,0.0158 -0.1103163,0.004 -0.1103163,-0.0265 z m -16.3126587,-0.88916 c 0.08631,-0.15065 0.103857,-0.24063 0.103857,-0.53238 0,-0.39713 -0.06686,-0.59624 -0.232622,-0.69276 -0.0596,-0.0347 -0.402763,-0.092 -0.762561,-0.12724 -0.611123,-0.0599 -0.662631,-0.0569 -0.782177,0.0457 -0.170921,0.14663 -0.227141,0.32954 -0.22785,0.74132 -5.75e-4,0.29689 0.01434,0.36508 0.10973,0.50415 l 0.110316,0.16081 -0.220636,-0.02 c -0.121349,-0.011 -3.190201,-0.21741 -6.819669,-0.45869 -3.629471,-0.24127 -6.746662,-0.45475 -6.927183,-0.47438 l -0.328308,-0.0357 0.07744,-0.18654 c 0.05459,-0.13147 0.07748,-0.29496 0.07759,-0.55387 1.19e-4,-0.32266 -0.01408,-0.39074 -0.116807,-0.55977 l -0.129761,-0.15481 -0.57919,-0.0569 c -0.646507,-0.0635 -0.743065,0.0122 -0.842309,0.29412 -0.08547,0.24277 -0.07404,0.82593 0.01962,1.00081 l 0.07636,0.1426 -0.185517,-0.0315 c -0.183577,-0.0312 -0.18587,-0.0343 -0.219208,-0.2967 -0.01854,-0.14584 -0.06342,-0.35796 -0.09975,-0.47139 -0.03633,-0.11342 -0.06187,-0.23711 -0.05676,-0.27484 0.0051,-0.0378 -0.0098,-0.18358 -0.03321,-0.32408 -0.02337,-0.14051 -0.04879,-0.32175 -0.05647,-0.40277 -0.0077,-0.081 -0.07167,-0.59807 -0.142209,-1.149 -0.109378,-0.85432 -0.130572,-1.17068 -0.144069,-2.15069 -0.0087,-0.63195 -0.01877,-1.24181 -0.02234,-1.35523 -0.0035,-0.11342 0.01433,-0.28578 0.03978,-0.383 0.151425,-0.57824 0.17736,-0.62624 0.511514,-0.94613 0.181908,-0.17416 0.381507,-0.33447 0.443561,-0.35627 0.06205,-0.0218 0.130863,-0.0593 0.152929,-0.0833 0.126631,-0.13782 2.312188,-1.03346 2.357399,-0.96711 0.0086,0.0125 0.104139,-0.0248 -0.158961,0.0873 -0.45696,0.19463 -1.173628,0.52415 -1.436226,0.71043 -0.37425,0.26546 -0.671615,0.69676 -0.734879,1.06586 -0.06426,0.37485 -0.06013,0.44559 0.0302,0.51659 0.08559,0.0673 16.321881,0.85751 16.473117,0.80177 0.05429,-0.02 0.137077,-0.15694 0.210594,-0.34826 0.194342,-0.50581 0.579991,-0.81361 1.66424,-1.32837 1.402847,-0.666 3.554733,-1.4399 5.339802,-1.92042 0.417486,-0.11237 0.776721,-0.23023 0.798264,-0.26191 0.02392,-0.0351 0.244207,-0.0447 0.564749,-0.0244 0.475128,0.03 0.547581,0.0208 0.755417,-0.0952 0.410505,-0.22914 0.545053,-0.59365 0.653646,-1.77058 0.03438,-0.37268 0.142914,-1.35375 0.241176,-2.180147 0.299614,-2.519728 0.362515,-3.683577 0.23738,-4.392126 -0.138173,-0.782377 -0.497513,-1.186239 -1.147187,-1.289116 -0.118189,-0.01872 -0.539838,-0.08682 -0.936984,-0.151315 -2.02516,-0.328934 -5.627833,-0.511824 -9.710411,-0.492969 -2.913765,0.01345 -3.251418,0.09096 -3.900329,0.89522 -0.359079,0.445049 -0.778447,1.289885 -1.299589,2.617889 -0.278616,0.710025 -1.68109,4.556694 -1.877496,5.149584 -0.08426,0.25436 -0.126217,0.31555 -0.25529,0.37235 -0.08495,0.0374 -0.163503,0.0546 -0.174562,0.0384 -0.01931,-0.0284 0.197947,-0.55658 0.354775,-0.86246 0.04154,-0.0811 0.171402,-0.42571 0.288593,-0.766 0.238174,-0.691573 0.55865,-1.535883 0.676911,-1.783302 0.04283,-0.08961 0.146523,-0.358935 0.230426,-0.59854 0.132305,-0.377797 0.283584,-0.764293 0.978543,-2.499988 0.557088,-1.391349 1.018857,-2.161001 1.514488,-2.524261 0.861005,-0.434953 2.053443,-0.802946 2.763732,-0.873534 0.231668,-0.01906 0.529527,-0.05878 0.66191,-0.08825 4.677493,-0.573381 14.358618,-1.291536 19.835619,0.853912 0.065492,0.04974 0.3061241,0.180439 0.5347427,0.290448 0.5484202,0.263882 1.0085464,0.612858 1.2362875,0.937762 1.0821586,2.3439 2.0387998,5.691847 3.2084128,8.050063 l -0.1120643,0.0441 c -0.061628,0.0242 -0.425266,0.0449 -0.8080911,0.046 l -0.6960071,0.002 -0.5919476,-2.18015 c -1.1724761,-4.318403 -1.4654381,-5.14527 -2.0133784,-5.682711 -0.3910448,-0.383552 -0.9815096,-0.592587 -1.9197385,-0.679556 -0.545934,-0.05061 -4.987989,0.07247 -5.275218,0.146163 -0.551952,0.141603 -0.763001,0.30792 -0.904329,0.712554 -0.170651,0.488704 -0.388464,2.084051 -0.839822,6.15157 -0.154645,1.39353 -0.301834,2.64712 -0.327085,2.78582 -0.04542,0.24939 -0.04393,0.25591 0.138392,0.60072 l 0.184311,0.34862 -0.168745,0.0315 c -0.09281,0.0174 -0.430481,0.0599 -0.750405,0.0947 -2.725381,0.29592 -5.032115,0.85915 -6.741846,1.64613 -0.989697,0.45551 -1.227782,0.88685 -1.32354,2.39775 -0.04392,0.69312 -0.03765,1.0291 0.08376,4.49807 0.02098,0.59954 0.03831,1.12319 0.03852,1.16373 2.56e-4,0.0543 -0.111145,0.0737 -0.424423,0.0737 h -0.424784 l 0.103857,-0.18128 z m -0.426187,-2.22817 c 0.202491,-0.15175 0.512357,-0.64775 0.620268,-0.99286 0.07208,-0.23052 0.0879,-0.39049 0.08899,-0.8991 0.0011,-0.57338 -0.0079,-0.64728 -0.124574,-1.00895 -0.157133,-0.48711 -0.349792,-0.80429 -0.624119,-1.02749 -0.183054,-0.14895 -0.254763,-0.17292 -0.513642,-0.17176 -0.229714,9.4e-4 -0.338816,0.0312 -0.461331,0.12771 -0.23395,0.1842 -0.481387,0.58643 -0.609317,0.99044 -0.0985,0.3111 -0.111689,0.4207 -0.109853,0.9133 0.0029,0.77913 0.101082,1.13551 0.457199,1.65957 0.198557,0.29217 0.317595,0.41647 0.46498,0.48553 0.244913,0.11477 0.601055,0.0812 0.81138,-0.0764 z m -15.843704,-0.92567 c 0.24777,-0.18136 0.447733,-0.53753 0.570325,-1.01583 0.07142,-0.27863 0.08295,-0.42939 0.07057,-0.92233 -0.01278,-0.5086 -0.03169,-0.64202 -0.138212,-0.975 -0.384842,-1.20303 -1.104627,-1.52504 -1.64342,-0.73518 -0.689069,1.01018 -0.461571,3.06765 0.405008,3.66301 0.263027,0.18071 0.474527,0.17649 0.735724,-0.0147 z m 42.74731001,1.9269 c 0.010793,-0.0516 0.057949,-0.27954 0.104764,-0.5064 0.1019496,-0.49402 0.3959042,-1.62892 0.440588,-1.7011 0.017474,-0.0282 0.10960619,0.0256 0.20475669,0.11941 0.2431943,0.25951 0.2968329,0.7208 0.1985358,1.0516 -0.1604636,0.45703 -0.46726459,1.00899 -0.79108219,1.09095 -0.1508903,0.0337 -0.1742772,0.0256 -0.1575514,-0.0544 z M -16.04804,109.77534 c -0.01468,-0.80329 -0.06959,-2.3621 -0.122031,-3.46396 -0.05243,-1.10186 -0.08989,-2.01222 -0.08324,-2.02307 0.04182,-0.068 5.081059,-0.65546 5.781479,-0.67395 l 0.5106729,-0.0135 0.070667,0.50084 c 0.089125,0.6316 0.089448,0.61139 -0.00751,0.46904 -0.1380239,-0.20274 -0.2752169,-0.24519 -0.6603039,-0.20432 -0.46093,0.049 -0.490254,0.0628 -0.562061,0.26684 -0.08386,0.23818 -0.07468,0.37911 0.03708,0.56996 0.09483,0.16195 0.106112,0.1655 0.551593,0.1737 0.506981,0.009 0.6059456,-0.0396 0.6927173,-0.34267 0.050906,-0.17783 0.051021,-0.17758 0.079244,0.16649 0.1021666,1.2457 0.1498339,2.24591 0.1715714,3.60008 0.023225,1.44792 0.020346,1.54674 -0.045407,1.54674 -0.092161,0 -6.0101377,0.8139 -6.2235517,0.85597 l -0.164154,0.0324 z m 6.6604162,-1.06284 c -0.031364,-2.00286 -0.127674,-3.44182 -0.3209923,-4.7957 l -0.055862,-0.3912 0.4454838,-0.0383 c 0.9676705,-0.0832 2.1942902,-0.14855 3.5280168,-0.18802 1.1813679,-0.035 1.4032481,-0.0285 1.4335344,0.0417 0.019714,0.0458 0.036104,0.26083 0.036434,0.47802 l 5.754e-4,0.39492 -0.106146,-0.14449 c -0.097807,-0.13315 -0.1373125,-0.14449 -0.5034109,-0.14449 -0.5459746,0 -0.671699,0.1082 -0.6735848,0.57979 -0.00118,0.28187 0.1350998,0.35886 0.6387213,0.36102 0.4168042,0.002 0.4672309,-0.01 0.5515927,-0.12616 l 0.092848,-0.12811 -0.00118,0.46692 c -5.755e-4,0.25681 -0.017443,0.85939 -0.037456,1.33908 l -0.036364,0.87219 -0.2405147,0.37764 c -0.2690362,0.42244 -0.4599275,0.89092 -0.6479489,1.59016 -0.069708,0.25926 -0.1307623,0.47739 -0.1356783,0.48473 -0.00953,0.0142 -3.7975168,0.54642 -3.8892194,0.54642 -0.043686,0 -0.059128,-0.30802 -0.078983,-1.57619 z m 4.2470508,0.85438 c 0.1383258,-0.66453 0.4815875,-1.50584 0.746033,-1.8285 0.1242828,-0.15164 0.1710849,-0.25989 0.1985193,-0.45918 0.019746,-0.14342 0.047817,-1.10457 0.062382,-2.13585 l 0.026483,-1.87509 0.7859855,0.0358 c 1.5404026,0.0702 3.91778071,0.2114 4.08538571,0.2427 0.23929699,0.0447 0.26150409,0.13371 0.215657,0.86424 -0.1227287,1.43118 -0.031883,3.15916 -0.2253453,4.55433 -0.0097,0.0526 -2.56568171,0.38702 -2.91986421,0.38213 -0.076814,-9.5e-4 -0.1505679,-0.0668 -0.2368932,-0.21125 -0.2593047,-0.43379 -0.6934423,-0.58482 -1.2893996,-0.44855 -0.3734212,0.0854 -0.6078337,0.26468 -0.8750447,0.66919 -0.2121999,0.32128 -0.2379269,0.34258 -0.4138736,0.34258 -0.1760073,0 -0.1859148,-0.008 -0.1600267,-0.13258 z m -30.042661,-3.61198 c -4.255076,-0.20505 -7.747951,-0.38903 -7.761188,-0.40881 -0.01347,-0.0198 0.0023,-0.10645 0.03533,-0.19258 0.200603,-0.52495 1.138083,-1.00169 3.680056,-1.87151 2.081403,-0.7122 3.27589,-1.16744 3.859893,-1.47113 0.107807,-0.056 0.366347,-0.10436 0.641853,-0.11989 0.253729,-0.0143 0.714058,-0.0529 1.022951,-0.0859 0.976537,-0.10412 3.874735,-0.13876 5.475794,-0.0655 3.498413,0.16019 6.883858,0.472 8.203664,0.75556 l 0.441272,0.0948 -0.581677,0.16085 c -1.714103,0.47401 -4.352154,1.48057 -5.409601,2.06391 -0.726217,0.40067 -1.12216,0.78573 -1.29233,1.25687 l -0.09753,0.27006 -0.240763,-0.007 c -0.132422,-0.004 -3.722335,-0.17476 -7.977412,-0.37981 z m 18.734441,-2.32445 c -0.108141,-0.20455 -0.186574,-0.41479 -0.186574,-0.50013 0,-0.13826 0.0128,-0.14726 0.210608,-0.14774 0.115831,-3.4e-4 0.309893,-0.0179 0.431242,-0.0392 0.202655,-0.0355 0.216152,-0.0307 0.165582,0.0594 -0.03029,0.054 -0.103554,0.0981 -0.162824,0.0981 -0.162543,0 -0.252641,0.12367 -0.236865,0.32513 0.02838,0.36246 0.438265,0.4381 0.466468,0.0861 0.0065,-0.0805 0.06963,-0.24747 0.140401,-0.37102 l 0.12867,-0.22462 2.146189,-0.1399 c 1.180407,-0.0769 2.28403,-0.15205 2.452476,-0.1669 l 0.306262,-0.027 0.25423,0.33817 0.254231,0.33817 -0.520382,0.0415 c -0.894541,0.0713 -5.132808,0.5727 -5.51872,0.65281 -0.137256,0.0285 -0.153588,0.0125 -0.330954,-0.32292 z m 6.412494,-0.73018 c -0.132383,-0.17877 -0.222642,-0.32645 -0.200579,-0.32818 0.02208,-0.002 1.1932025,-0.081 2.6025879,-0.17612 l 2.56247,-0.17298 0.2779274,0.36532 0.277925,0.36532 -1.2758851,0.0403 c -1.2145417,0.0384 -2.9268407,0.1318 -3.6627656,0.19983 l -0.3409843,0.0315 z m 8.9257465,0.22558 c -0.6508762,-0.0419 -1.6092822,-0.0941 -2.1297797,-0.11579 l -0.9463658,-0.0395 -0.2880133,-0.36197 -0.2880172,-0.36197 0.5925096,-0.0351 c 0.3258897,-0.0193 0.7653293,-0.0705 0.9764987,-0.11372 0.3550345,-0.0726 0.426104,-0.0688 0.9427191,0.0518 0.9626169,0.20394 1.82333878,0.58103 2.68486371,0.98685 l 0.1604613,0.0745 -0.2607495,-0.005 c -0.1434153,-0.003 -0.79329003,-0.0387 -1.44416701,-0.0807 z m -15.4614005,-0.54048 c 0.0088,-0.0567 0.143542,-1.24329 0.299504,-2.63681 0.287299,-2.567105 0.515887,-4.413164 0.612847,-4.949539 l 0.05326,-0.294615 0.08993,0.854384 c 0.04946,0.469911 0.193687,1.861969 0.320514,3.093456 l 0.230595,2.239074 -0.505458,0.0353 c -0.533579,0.0373 -0.603499,0.0662 -0.762961,0.31661 -0.0831,0.13048 -0.102072,0.22729 -0.114312,0.58339 -0.008,0.23483 0.0037,0.52482 0.02619,0.64444 l 0.04088,0.21747 h -0.153476 c -0.125494,0 -0.150565,-0.0188 -0.137531,-0.10311 z m 2.68306,-0.49403 c -0.0023,-0.74254 -0.176334,-1.03834 -0.670494,-1.13898 -0.152254,-0.031 -0.194212,-0.0646 -0.209436,-0.16775 -0.01047,-0.0709 -0.164224,-1.545256 -0.341661,-3.276298 -0.17744,-1.730985 -0.340527,-3.178958 -0.362415,-3.217729 -0.06525,-0.115483 0.101217,-0.362754 0.312133,-0.463629 0.364442,-0.174306 0.719756,-0.220882 1.940558,-0.254368 l 1.229024,-0.03371 0.04638,0.317572 c 0.114989,0.78739 1.085935,8.251582 1.085935,8.348212 0,0.10098 -0.0798,0.11299 -1.193445,0.17965 -0.656372,0.0392 -1.337857,0.0871 -1.514369,0.10627 l -0.320924,0.0348 z m -4.973146,0.0669 c -0.264765,-0.0582 -0.717911,-0.16132 -1.006984,-0.22903 -0.28909,-0.0677 -0.785508,-0.14892 -1.103183,-0.18048 -0.31766,-0.0315 -0.740054,-0.0837 -0.938628,-0.11588 -1.554282,-0.25193 -6.167388,-0.53478 -8.70511,-0.53378 -1.377293,6.9e-4 -2.101181,0.0312 -3.626703,0.15357 l -0.497675,0.0399 0.02461,-0.18076 c 0.02438,-0.17904 1.248884,-3.622768 1.691642,-4.757565 0.85639,-2.194825 1.377532,-2.97255 2.110687,-3.150087 0.416442,-0.100816 2.817688,-0.195813 3.968007,-0.156979 0.584685,0.01975 1.96567,0.0619 3.068852,0.09368 2.792737,0.08047 4.066529,0.185375 5.796721,0.477381 1.321612,0.223054 1.386882,0.307847 1.380383,1.793204 -0.0039,0.87925 -0.04837,1.406729 -0.29591,3.505922 -0.08598,0.729174 -0.194699,1.683734 -0.241591,2.121234 -0.04689,0.43751 -0.112703,0.85733 -0.146256,0.93299 -0.144133,0.32484 -0.593234,0.38151 -1.478865,0.18664 z m 8.545448,-0.0148 c -0.01149,-0.0729 -0.220632,-1.65721 -0.464776,-3.520653 -0.244134,-1.863442 -0.493387,-3.762711 -0.553882,-4.220599 l -0.109995,-0.832525 0.82474,-0.04158 c 0.530327,-0.02675 1.0037345,-0.01751 1.3261855,0.02585 0.5235484,0.0704 1.0800756,0.213627 1.1355159,0.29221 0.0255,0.03617 0.4541885,3.246307 1.0371922,7.766647 0.026105,0.20238 0.035621,0.38534 0.021149,0.4066 -0.019104,0.028 -2.207568,0.20477 -3.1458336,0.254 -0.02717,9.5e-4 -0.05878,-0.0571 -0.07027,-0.12998 z m 3.4511597,-0.17225 c -0.024091,-0.10449 -1.0248365,-7.860918 -1.0248365,-7.943411 0,-0.103976 0.1554711,0.04418 0.3947842,0.376218 0.119016,0.165118 0.2953253,0.498093 0.3918024,0.739957 0.2485052,0.62293 0.7634447,2.361514 1.3793814,4.657096 0.2912943,1.08566 0.5381501,2.0045 0.548582,2.04192 0.020061,0.072 -0.1949042,0.10359 -1.160149,0.17064 -0.4058086,0.0282 -0.515285,0.0194 -0.5295645,-0.0426 z"
   style="stroke-width:0.0486185" />
</svg>
